<svg width="400" height="400" viewBox="0 0 400 400" fill="none" xmlns="http://www.w3.org/2000/svg">
<mask id="mask0_78_12" style="mask-type:alpha" maskUnits="userSpaceOnUse" x="46" y="22" width="308" height="356">
<path fill-rule="evenodd" clip-rule="evenodd" d="M76 22C59.4315 22 46 35.4315 46 52V95H354V52C354 35.4315 340.569 22 324 22H76ZM46 112H354V348C354 364.569 340.569 378 324 378H76C59.4315 378 46 364.569 46 348V112ZM100 150C94.4772 150 90 154.477 90 160V220C90 225.523 94.4772 230 100 230H160C165.523 230 170 225.523 170 220V160C170 154.477 165.523 150 160 150H100ZM100 263C94.4772 263 90 267.477 90 273V333C90 338.523 94.4772 343 100 343H160C165.523 343 170 338.523 170 333V273C170 267.477 165.523 263 160 263H100ZM230 160C230 154.477 234.477 150 240 150H300C305.523 150 310 154.477 310 160V220C310 225.523 305.523 230 300 230H240C234.477 230 230 225.523 230 220V160ZM240 263C234.477 263 230 267.477 230 273V333C230 338.523 234.477 343 240 343H300C305.523 343 310 338.523 310 333V273C310 267.477 305.523 263 300 263H240Z" fill="white"/>
</mask>
<g mask="url(#mask0_78_12)">
<rect x="-39" y="-10" width="501" height="420" fill="#D2D2D2"/>
</g>
</svg>
