<svg width="1020" height="1020" viewBox="0 0 1020 1020" fill="none" xmlns="http://www.w3.org/2000/svg">
<path d="M34.5415 217.612L567.814 33.9916C569.12 33.5421 570.542 34.236 570.992 35.5415L616.409 167.441C616.858 168.747 616.164 170.17 614.859 170.619L230.505 302.963C226.589 304.311 224.507 308.579 225.856 312.496L358.036 696.376C358.486 697.682 357.792 699.105 356.487 699.554L217.023 747.575C215.717 748.025 214.294 747.331 213.845 746.026L32.9916 220.79C32.5421 219.484 33.236 218.062 34.5415 217.612Z" fill="#B8B8B8" fill-opacity="0.54" stroke="#979797" stroke-width="5"/>
<line x1="602.435" y1="177.541" x2="590.064" y2="141.611" stroke="black" stroke-width="4"/>
<line x1="582.579" y1="184.378" x2="570.208" y2="148.448" stroke="black" stroke-width="4"/>
<line x1="562.723" y1="191.215" x2="550.352" y2="155.285" stroke="black" stroke-width="4"/>
<line x1="542.868" y1="198.052" x2="530.496" y2="162.122" stroke="black" stroke-width="4"/>
<line x1="523.012" y1="204.889" x2="505.106" y2="152.885" stroke="black" stroke-width="4"/>
<line x1="504.101" y1="211.4" x2="491.73" y2="175.47" stroke="black" stroke-width="4"/>
<line x1="484.245" y1="218.237" x2="471.874" y2="182.307" stroke="black" stroke-width="4"/>
<line x1="464.389" y1="225.074" x2="452.018" y2="189.144" stroke="black" stroke-width="4"/>
<line x1="444.534" y1="231.911" x2="432.162" y2="195.981" stroke="black" stroke-width="4"/>
<line x1="424.678" y1="238.748" x2="406.772" y2="186.744" stroke="black" stroke-width="4"/>
<line x1="405.767" y1="245.259" x2="393.396" y2="209.329" stroke="black" stroke-width="4"/>
<line x1="385.911" y1="252.096" x2="373.54" y2="216.166" stroke="black" stroke-width="4"/>
<line x1="366.055" y1="258.933" x2="353.684" y2="223.003" stroke="black" stroke-width="4"/>
<line x1="346.2" y1="265.77" x2="333.828" y2="229.84" stroke="black" stroke-width="4"/>
<line x1="326.344" y1="272.607" x2="308.438" y2="220.603" stroke="black" stroke-width="4"/>
<line x1="307.906" y1="278.955" x2="295.535" y2="243.026" stroke="black" stroke-width="4"/>
<line x1="288.05" y1="285.792" x2="275.679" y2="249.863" stroke="black" stroke-width="4"/>
<line x1="268.194" y1="292.629" x2="255.823" y2="256.7" stroke="black" stroke-width="4"/>
<line x1="248.339" y1="299.466" x2="235.967" y2="263.536" stroke="black" stroke-width="4"/>
<line x1="228.483" y1="306.303" x2="210.576" y2="254.3" stroke="black" stroke-width="4"/>
<line y1="-2" x2="38" y2="-2" transform="matrix(-0.945519 0.325568 0.325568 0.945519 356.819 685.162)" stroke="black" stroke-width="4"/>
<line y1="-2" x2="38" y2="-2" transform="matrix(-0.945519 0.325568 0.325568 0.945519 349.982 665.306)" stroke="black" stroke-width="4"/>
<line y1="-2" x2="38" y2="-2" transform="matrix(-0.945519 0.325568 0.325568 0.945519 343.145 645.45)" stroke="black" stroke-width="4"/>
<line y1="-2" x2="38" y2="-2" transform="matrix(-0.945519 0.325568 0.325568 0.945519 336.308 625.594)" stroke="black" stroke-width="4"/>
<line y1="-2" x2="55" y2="-2" transform="matrix(-0.945519 0.325568 0.325568 0.945519 329.471 605.738)" stroke="black" stroke-width="4"/>
<line y1="-2" x2="38" y2="-2" transform="matrix(-0.945519 0.325568 0.325568 0.945519 322.96 586.828)" stroke="black" stroke-width="4"/>
<line y1="-2" x2="38" y2="-2" transform="matrix(-0.945519 0.325568 0.325568 0.945519 316.123 566.972)" stroke="black" stroke-width="4"/>
<line y1="-2" x2="38" y2="-2" transform="matrix(-0.945519 0.325568 0.325568 0.945519 309.286 547.116)" stroke="black" stroke-width="4"/>
<line y1="-2" x2="38" y2="-2" transform="matrix(-0.945519 0.325568 0.325568 0.945519 302.449 527.26)" stroke="black" stroke-width="4"/>
<line y1="-2" x2="55" y2="-2" transform="matrix(-0.945519 0.325568 0.325568 0.945519 295.612 507.404)" stroke="black" stroke-width="4"/>
<line y1="-2" x2="38" y2="-2" transform="matrix(-0.945519 0.325568 0.325568 0.945519 289.101 488.494)" stroke="black" stroke-width="4"/>
<line y1="-2" x2="38" y2="-2" transform="matrix(-0.945519 0.325568 0.325568 0.945519 282.264 468.638)" stroke="black" stroke-width="4"/>
<line y1="-2" x2="38" y2="-2" transform="matrix(-0.945519 0.325568 0.325568 0.945519 275.427 448.782)" stroke="black" stroke-width="4"/>
<line y1="-2" x2="38" y2="-2" transform="matrix(-0.945519 0.325568 0.325568 0.945519 268.59 428.926)" stroke="black" stroke-width="4"/>
<line y1="-2" x2="55" y2="-2" transform="matrix(-0.945519 0.325568 0.325568 0.945519 261.753 409.07)" stroke="black" stroke-width="4"/>
<line y1="-2" x2="38" y2="-2" transform="matrix(-0.945519 0.325568 0.325568 0.945519 255.242 390.16)" stroke="black" stroke-width="4"/>
<line y1="-2" x2="38" y2="-2" transform="matrix(-0.945519 0.325568 0.325568 0.945519 248.405 370.304)" stroke="black" stroke-width="4"/>
<line y1="-2" x2="38" y2="-2" transform="matrix(-0.945519 0.325568 0.325568 0.945519 241.568 350.448)" stroke="black" stroke-width="4"/>
<line y1="-2" x2="38" y2="-2" transform="matrix(-0.945519 0.325568 0.325568 0.945519 234.731 330.592)" stroke="black" stroke-width="4"/>
<line y1="-2" x2="55" y2="-2" transform="matrix(-0.945519 0.325568 0.325568 0.945519 227.894 310.736)" stroke="black" stroke-width="4"/>
<rect x="557.757" y="53.6205" width="397" height="541" rx="5" transform="rotate(12 557.757 53.6205)" fill="#DDDDDD"/>
<rect x="593.556" y="57.7625" width="397" height="541" rx="5" transform="rotate(16 593.556 57.7625)" fill="#F5F5F5"/>
<path d="M604.904 108.87L817.352 169.789" stroke="black" stroke-width="8" stroke-linecap="round"/>
<path d="M538.755 339.574L719.473 391.394" stroke="black" stroke-width="8" stroke-linecap="round"/>
<path d="M594.985 143.477L930.467 239.675" stroke="black" stroke-width="4" stroke-linecap="round"/>
<path d="M588.509 166.067L923.99 262.264" stroke="black" stroke-width="4" stroke-linecap="round"/>
<path d="M582.032 188.657L917.513 284.854" stroke="black" stroke-width="4" stroke-linecap="round"/>
<path d="M575.555 211.246L911.037 307.444" stroke="black" stroke-width="4" stroke-linecap="round"/>
<path d="M568.655 235.275L784.956 297.299" stroke="black" stroke-width="4" stroke-linecap="round"/>
<path d="M562.185 257.867L778.485 319.89" stroke="black" stroke-width="4" stroke-linecap="round"/>
<path d="M555.714 280.459L772.014 342.482" stroke="black" stroke-width="4" stroke-linecap="round"/>
<path d="M530.218 369.375L865.699 465.573" stroke="black" stroke-width="4" stroke-linecap="round"/>
<path d="M523.741 391.965L859.223 488.163" stroke="black" stroke-width="4" stroke-linecap="round"/>
<path d="M517.264 414.555L852.746 510.753" stroke="black" stroke-width="4" stroke-linecap="round"/>
<path d="M510.787 437.145L846.269 533.343" stroke="black" stroke-width="4" stroke-linecap="round"/>
<path d="M653.567 501.493L840.073 554.973" stroke="black" stroke-width="4" stroke-linecap="round"/>
<path d="M646.957 524.565L833.462 578.045" stroke="black" stroke-width="4" stroke-linecap="round"/>
<path d="M640.622 546.675L827.128 600.155" stroke="black" stroke-width="4" stroke-linecap="round"/>
<path d="M634.277 568.783L820.783 622.263" stroke="black" stroke-width="4" stroke-linecap="round"/>
<path d="M627.952 590.896L814.458 644.376" stroke="black" stroke-width="4" stroke-linecap="round"/>
<rect x="806.79" y="293.677" width="104" height="123" rx="5" transform="rotate(16 806.79 293.677)" fill="#9469D7"/>
<rect x="505.955" y="453.964" width="140" height="100" rx="5" transform="rotate(16 505.955 453.964)" fill="#9469D7"/>
<path d="M562.385 197.116L587.142 224.612L250.498 527.728C248.446 529.576 245.284 529.41 243.436 527.358L225.37 507.293C223.522 505.241 223.688 502.079 225.74 500.232L562.385 197.116Z" fill="url(#paint0_linear_62_2)"/>
<path d="M592.098 189.238C596.032 188.2 599.493 192.044 598.049 195.847L587.133 224.602L562.36 197.089L592.098 189.238Z" fill="url(#paint1_linear_62_2)"/>
<path d="M592.202 189.191C596.122 188.175 599.561 191.994 598.14 195.786L595.585 202.604L585.154 191.02L592.202 189.191Z" fill="url(#paint2_linear_62_2)"/>
<rect x="79.3918" y="575.668" width="874.196" height="340.089" rx="7.5" transform="rotate(4 79.3918 575.668)" fill="#7F51C7" stroke="url(#paint3_linear_62_2)" stroke-width="5"/>
<rect x="179.669" y="668.595" width="49.0235" height="49.0235" rx="3.5" transform="rotate(4 179.669 668.595)" fill="#C39DFF" stroke="url(#paint4_linear_62_2)" stroke-width="3"/>
<rect x="152.644" y="607.602" width="49.0235" height="49.0235" rx="3.5" transform="rotate(4 152.644 607.602)" fill="#C39DFF" stroke="url(#paint5_linear_62_2)" stroke-width="3"/>
<rect x="105.937" y="604.336" width="38.6188" height="49.0235" rx="3.5" transform="rotate(4 105.937 604.336)" fill="#C39DFF" stroke="url(#paint6_linear_62_2)" stroke-width="3"/>
<rect x="101.824" y="663.152" width="69.8328" height="49.0235" rx="3.5" transform="rotate(4 101.824 663.152)" fill="#C39DFF" stroke="url(#paint7_linear_62_2)" stroke-width="3"/>
<rect x="97.711" y="721.968" width="85.4399" height="49.0235" rx="3.5" transform="rotate(4 97.711 721.968)" fill="#C39DFF" stroke="url(#paint8_linear_62_2)" stroke-width="3"/>
<rect x="93.5983" y="780.785" width="104.515" height="49.0235" rx="3.5" transform="rotate(4 93.5983 780.785)" fill="#C39DFF" stroke="url(#paint9_linear_62_2)" stroke-width="3"/>
<rect x="192.855" y="728.621" width="49.0235" height="49.0235" rx="3.5" transform="rotate(4 192.855 728.621)" fill="#C39DFF" stroke="url(#paint10_linear_62_2)" stroke-width="3"/>
<rect x="206.041" y="788.647" width="49.0235" height="49.0235" rx="3.5" transform="rotate(4 206.041 788.647)" fill="#C39DFF" stroke="url(#paint11_linear_62_2)" stroke-width="3"/>
<rect x="89.4855" y="839.601" width="49.0235" height="49.0235" rx="3.5" transform="rotate(4 89.4855 839.601)" fill="#C39DFF" stroke="url(#paint12_linear_62_2)" stroke-width="3"/>
<rect x="236.755" y="672.587" width="49.0235" height="49.0235" rx="3.5" transform="rotate(4 236.755 672.587)" fill="#C39DFF" stroke="url(#paint13_linear_62_2)" stroke-width="3"/>
<rect x="209.73" y="611.594" width="49.0235" height="49.0235" rx="3.5" transform="rotate(4 209.73 611.594)" fill="#C39DFF" stroke="url(#paint14_linear_62_2)" stroke-width="3"/>
<rect x="249.942" y="732.613" width="49.0235" height="49.0235" rx="3.5" transform="rotate(4 249.942 732.613)" fill="#C39DFF" stroke="url(#paint15_linear_62_2)" stroke-width="3"/>
<rect x="263.128" y="792.639" width="49.0235" height="49.0235" rx="3.5" transform="rotate(4 263.128 792.639)" fill="#C39DFF" stroke="url(#paint16_linear_62_2)" stroke-width="3"/>
<rect x="146.572" y="843.593" width="49.0235" height="49.0235" rx="3.5" transform="rotate(4 146.572 843.593)" fill="#C39DFF" stroke="url(#paint17_linear_62_2)" stroke-width="3"/>
<rect x="293.842" y="676.579" width="49.0235" height="49.0235" rx="3.5" transform="rotate(4 293.842 676.579)" fill="#C39DFF" stroke="url(#paint18_linear_62_2)" stroke-width="3"/>
<rect x="266.817" y="615.585" width="49.0235" height="49.0235" rx="3.5" transform="rotate(4 266.817 615.585)" fill="#C39DFF" stroke="url(#paint19_linear_62_2)" stroke-width="3"/>
<rect x="307.028" y="736.605" width="49.0235" height="49.0235" rx="3.5" transform="rotate(4 307.028 736.605)" fill="#C39DFF" stroke="url(#paint20_linear_62_2)" stroke-width="3"/>
<rect x="320.214" y="796.631" width="49.0235" height="49.0235" rx="3.5" transform="rotate(4 320.214 796.631)" fill="#C39DFF" stroke="url(#paint21_linear_62_2)" stroke-width="3"/>
<rect x="203.658" y="847.585" width="49.0235" height="49.0235" rx="3.5" transform="rotate(4 203.658 847.585)" fill="#C39DFF" stroke="url(#paint22_linear_62_2)" stroke-width="3"/>
<rect x="350.928" y="680.571" width="49.0235" height="49.0235" rx="3.5" transform="rotate(4 350.928 680.571)" fill="#C39DFF" stroke="url(#paint23_linear_62_2)" stroke-width="3"/>
<rect x="323.903" y="619.577" width="49.0235" height="49.0235" rx="3.5" transform="rotate(4 323.903 619.577)" fill="#C39DFF" stroke="url(#paint24_linear_62_2)" stroke-width="3"/>
<rect x="364.114" y="740.597" width="49.0235" height="49.0235" rx="3.5" transform="rotate(4 364.114 740.597)" fill="#C39DFF" stroke="url(#paint25_linear_62_2)" stroke-width="3"/>
<rect x="377.3" y="800.623" width="49.0235" height="49.0235" rx="3.5" transform="rotate(4 377.3 800.623)" fill="#C39DFF" stroke="url(#paint26_linear_62_2)" stroke-width="3"/>
<rect x="260.744" y="851.576" width="49.0235" height="49.0235" rx="3.5" transform="rotate(4 260.744 851.576)" fill="#C39DFF" stroke="url(#paint27_linear_62_2)" stroke-width="3"/>
<rect x="317.831" y="855.568" width="298.736" height="49.0235" rx="3.5" transform="rotate(4 317.831 855.568)" fill="#C39DFF" stroke="url(#paint28_linear_62_2)" stroke-width="3"/>
<rect x="408.015" y="684.563" width="49.0235" height="49.0235" rx="3.5" transform="rotate(4 408.015 684.563)" fill="#C39DFF" stroke="url(#paint29_linear_62_2)" stroke-width="3"/>
<rect x="380.989" y="623.569" width="49.0235" height="49.0235" rx="3.5" transform="rotate(4 380.989 623.569)" fill="#C39DFF" stroke="url(#paint30_linear_62_2)" stroke-width="3"/>
<rect x="421.201" y="744.589" width="49.0235" height="49.0235" rx="3.5" transform="rotate(4 421.201 744.589)" fill="#C39DFF" stroke="url(#paint31_linear_62_2)" stroke-width="3"/>
<rect x="434.387" y="804.615" width="49.0235" height="49.0235" rx="3.5" transform="rotate(4 434.387 804.615)" fill="#C39DFF" stroke="url(#paint32_linear_62_2)" stroke-width="3"/>
<rect x="465.101" y="688.555" width="49.0235" height="49.0235" rx="3.5" transform="rotate(4 465.101 688.555)" fill="#C39DFF" stroke="url(#paint33_linear_62_2)" stroke-width="3"/>
<rect x="438.076" y="627.561" width="49.0235" height="49.0235" rx="3.5" transform="rotate(4 438.076 627.561)" fill="#C39DFF" stroke="url(#paint34_linear_62_2)" stroke-width="3"/>
<rect x="478.287" y="748.581" width="49.0235" height="49.0235" rx="3.5" transform="rotate(4 478.287 748.581)" fill="#C39DFF" stroke="url(#paint35_linear_62_2)" stroke-width="3"/>
<rect x="491.473" y="808.607" width="49.0235" height="49.0235" rx="3.5" transform="rotate(4 491.473 808.607)" fill="#C39DFF" stroke="url(#paint36_linear_62_2)" stroke-width="3"/>
<rect x="624.022" y="876.979" width="49.0235" height="49.0235" rx="3.5" transform="rotate(4 624.022 876.979)" fill="#C39DFF" stroke="url(#paint37_linear_62_2)" stroke-width="3"/>
<rect x="522.187" y="692.547" width="49.0235" height="49.0235" rx="3.5" transform="rotate(4 522.187 692.547)" fill="#C39DFF" stroke="url(#paint38_linear_62_2)" stroke-width="3"/>
<rect x="495.162" y="631.553" width="49.0235" height="49.0235" rx="3.5" transform="rotate(4 495.162 631.553)" fill="#C39DFF" stroke="url(#paint39_linear_62_2)" stroke-width="3"/>
<rect x="535.373" y="752.573" width="49.0235" height="49.0235" rx="3.5" transform="rotate(4 535.373 752.573)" fill="#C39DFF" stroke="url(#paint40_linear_62_2)" stroke-width="3"/>
<rect x="548.559" y="812.599" width="49.0235" height="49.0235" rx="3.5" transform="rotate(4 548.559 812.599)" fill="#C39DFF" stroke="url(#paint41_linear_62_2)" stroke-width="3"/>
<rect x="681.108" y="880.971" width="49.0235" height="49.0235" rx="3.5" transform="rotate(4 681.108 880.971)" fill="#C39DFF" stroke="url(#paint42_linear_62_2)" stroke-width="3"/>
<rect x="579.274" y="696.538" width="49.0235" height="49.0235" rx="3.5" transform="rotate(4 579.274 696.538)" fill="#C39DFF" stroke="url(#paint43_linear_62_2)" stroke-width="3"/>
<rect x="552.249" y="635.545" width="49.0235" height="49.0235" rx="3.5" transform="rotate(4 552.249 635.545)" fill="#C39DFF" stroke="url(#paint44_linear_62_2)" stroke-width="3"/>
<rect x="592.46" y="756.564" width="49.0235" height="49.0235" rx="3.5" transform="rotate(4 592.46 756.564)" fill="#C39DFF" stroke="url(#paint45_linear_62_2)" stroke-width="3"/>
<rect x="605.646" y="816.59" width="49.0235" height="49.0235" rx="3.5" transform="rotate(4 605.646 816.59)" fill="#C39DFF" stroke="url(#paint46_linear_62_2)" stroke-width="3"/>
<rect x="738.194" y="884.963" width="49.0235" height="49.0235" rx="3.5" transform="rotate(4 738.194 884.963)" fill="#C39DFF" stroke="url(#paint47_linear_62_2)" stroke-width="3"/>
<rect x="636.36" y="700.53" width="49.0235" height="49.0235" rx="3.5" transform="rotate(4 636.36 700.53)" fill="#C39DFF" stroke="url(#paint48_linear_62_2)" stroke-width="3"/>
<rect x="609.335" y="639.537" width="49.0235" height="49.0235" rx="3.5" transform="rotate(4 609.335 639.537)" fill="#C39DFF" stroke="url(#paint49_linear_62_2)" stroke-width="3"/>
<rect x="649.546" y="760.556" width="49.0235" height="49.0235" rx="3.5" transform="rotate(4 649.546 760.556)" fill="#C39DFF" stroke="url(#paint50_linear_62_2)" stroke-width="3"/>
<rect x="662.732" y="820.582" width="49.0235" height="49.0235" rx="3.5" transform="rotate(4 662.732 820.582)" fill="#C39DFF" stroke="url(#paint51_linear_62_2)" stroke-width="3"/>
<rect x="795.281" y="888.955" width="49.0235" height="49.0235" rx="3.5" transform="rotate(4 795.281 888.955)" fill="#C39DFF" stroke="url(#paint52_linear_62_2)" stroke-width="3"/>
<rect x="693.446" y="704.522" width="49.0235" height="49.0235" rx="3.5" transform="rotate(4 693.446 704.522)" fill="#C39DFF" stroke="url(#paint53_linear_62_2)" stroke-width="3"/>
<rect x="666.421" y="643.529" width="49.0235" height="49.0235" rx="3.5" transform="rotate(4 666.421 643.529)" fill="#C39DFF" stroke="url(#paint54_linear_62_2)" stroke-width="3"/>
<rect x="706.633" y="764.548" width="49.0235" height="49.0235" rx="3.5" transform="rotate(4 706.633 764.548)" fill="#C39DFF" stroke="url(#paint55_linear_62_2)" stroke-width="3"/>
<rect x="719.819" y="824.574" width="49.0235" height="49.0235" rx="3.5" transform="rotate(4 719.819 824.574)" fill="#C39DFF" stroke="url(#paint56_linear_62_2)" stroke-width="3"/>
<rect x="852.367" y="892.947" width="49.0235" height="49.0235" rx="3.5" transform="rotate(4 852.367 892.947)" fill="#C39DFF" stroke="url(#paint57_linear_62_2)" stroke-width="3"/>
<rect x="750.533" y="708.514" width="49.0235" height="49.0235" rx="3.5" transform="rotate(4 750.533 708.514)" fill="#C39DFF" stroke="url(#paint58_linear_62_2)" stroke-width="3"/>
<rect x="723.508" y="647.52" width="49.0235" height="49.0235" rx="3.5" transform="rotate(4 723.508 647.52)" fill="#C39DFF" stroke="url(#paint59_linear_62_2)" stroke-width="3"/>
<rect x="763.719" y="768.54" width="49.0235" height="49.0235" rx="3.5" transform="rotate(4 763.719 768.54)" fill="#C39DFF" stroke="url(#paint60_linear_62_2)" stroke-width="3"/>
<rect x="820.806" y="772.532" width="88.9081" height="49.0235" rx="3.5" transform="rotate(4 820.806 772.532)" fill="#C39DFF" stroke="url(#paint61_linear_62_2)" stroke-width="3"/>
<rect x="839.411" y="655.625" width="78.5034" height="49.0235" rx="3.5" transform="rotate(4 839.411 655.625)" fill="#C39DFF" stroke="url(#paint62_linear_62_2)" stroke-width="3"/>
<rect x="776.905" y="828.566" width="128.793" height="49.0235" rx="3.5" transform="rotate(4 776.905 828.566)" fill="#C39DFF" stroke="url(#paint63_linear_62_2)" stroke-width="3"/>
<rect x="807.619" y="712.506" width="49.0235" height="49.0235" rx="3.5" transform="rotate(4 807.619 712.506)" fill="#C39DFF" stroke="url(#paint64_linear_62_2)" stroke-width="3"/>
<rect x="780.594" y="651.512" width="49.0235" height="49.0235" rx="3.5" transform="rotate(4 780.594 651.512)" fill="#C39DFF" stroke="url(#paint65_linear_62_2)" stroke-width="3"/>
<rect x="864.706" y="716.498" width="49.0235" height="49.0235" rx="3.5" transform="rotate(4 864.706 716.498)" fill="#C39DFF" stroke="url(#paint66_linear_62_2)" stroke-width="3"/>
<defs>
<linearGradient id="paint0_linear_62_2" x1="416.962" y1="377.843" x2="392.204" y2="350.346" gradientUnits="userSpaceOnUse">
<stop offset="0.33" stop-color="#B07EFF"/>
<stop offset="0.3301" stop-color="#7F51C7"/>
<stop offset="0.66" stop-color="#7F51C7"/>
<stop offset="0.66" stop-color="#4E2F7D"/>
</linearGradient>
<linearGradient id="paint1_linear_62_2" x1="597.967" y1="218.7" x2="569.362" y2="186.931" gradientUnits="userSpaceOnUse">
<stop stop-color="#E8B654"/>
<stop offset="0.35" stop-color="#987635"/>
<stop offset="0.64" stop-color="#6B5325"/>
<stop offset="1" stop-color="#6B5325"/>
</linearGradient>
<linearGradient id="paint2_linear_62_2" x1="600.107" y1="200.155" x2="588.063" y2="186.778" gradientUnits="userSpaceOnUse">
<stop stop-color="#22201C"/>
<stop offset="1"/>
</linearGradient>
<linearGradient id="paint3_linear_62_2" x1="756.673" y1="918.089" x2="276.668" y2="573" gradientUnits="userSpaceOnUse">
<stop offset="0.5" stop-color="#4E2F7D"/>
<stop offset="0.5" stop-color="#B07EFF"/>
</linearGradient>
<linearGradient id="paint4_linear_62_2" x1="178.277" y1="680.228" x2="230.301" y2="705.784" gradientUnits="userSpaceOnUse">
<stop offset="0.5" stop-color="#D8C0FF"/>
<stop offset="0.5" stop-color="#A56CFF"/>
</linearGradient>
<linearGradient id="paint5_linear_62_2" x1="151.252" y1="619.235" x2="203.275" y2="644.79" gradientUnits="userSpaceOnUse">
<stop offset="0.5" stop-color="#D8C0FF"/>
<stop offset="0.5" stop-color="#A56CFF"/>
</linearGradient>
<linearGradient id="paint6_linear_62_2" x1="104.545" y1="615.969" x2="149.295" y2="633.555" gradientUnits="userSpaceOnUse">
<stop offset="0.5" stop-color="#D8C0FF"/>
<stop offset="0.5" stop-color="#A56CFF"/>
</linearGradient>
<linearGradient id="paint7_linear_62_2" x1="100.432" y1="674.785" x2="161.81" y2="716.996" gradientUnits="userSpaceOnUse">
<stop offset="0.5" stop-color="#D8C0FF"/>
<stop offset="0.5" stop-color="#A56CFF"/>
</linearGradient>
<linearGradient id="paint8_linear_62_2" x1="96.3193" y1="733.601" x2="160.996" y2="787.612" gradientUnits="userSpaceOnUse">
<stop offset="0.5" stop-color="#D8C0FF"/>
<stop offset="0.5" stop-color="#A56CFF"/>
</linearGradient>
<linearGradient id="paint9_linear_62_2" x1="92.2065" y1="792.418" x2="157.929" y2="859.14" gradientUnits="userSpaceOnUse">
<stop offset="0.5" stop-color="#D8C0FF"/>
<stop offset="0.5" stop-color="#A56CFF"/>
</linearGradient>
<linearGradient id="paint10_linear_62_2" x1="191.463" y1="740.254" x2="243.487" y2="765.81" gradientUnits="userSpaceOnUse">
<stop offset="0.5" stop-color="#D8C0FF"/>
<stop offset="0.5" stop-color="#A56CFF"/>
</linearGradient>
<linearGradient id="paint11_linear_62_2" x1="204.65" y1="800.28" x2="256.673" y2="825.836" gradientUnits="userSpaceOnUse">
<stop offset="0.5" stop-color="#D8C0FF"/>
<stop offset="0.5" stop-color="#A56CFF"/>
</linearGradient>
<linearGradient id="paint12_linear_62_2" x1="88.0938" y1="851.234" x2="140.117" y2="876.789" gradientUnits="userSpaceOnUse">
<stop offset="0.5" stop-color="#D8C0FF"/>
<stop offset="0.5" stop-color="#A56CFF"/>
</linearGradient>
<linearGradient id="paint13_linear_62_2" x1="235.364" y1="684.22" x2="287.387" y2="709.776" gradientUnits="userSpaceOnUse">
<stop offset="0.5" stop-color="#D8C0FF"/>
<stop offset="0.5" stop-color="#A56CFF"/>
</linearGradient>
<linearGradient id="paint14_linear_62_2" x1="208.338" y1="623.227" x2="260.362" y2="648.782" gradientUnits="userSpaceOnUse">
<stop offset="0.5" stop-color="#D8C0FF"/>
<stop offset="0.5" stop-color="#A56CFF"/>
</linearGradient>
<linearGradient id="paint15_linear_62_2" x1="248.55" y1="744.246" x2="300.573" y2="769.802" gradientUnits="userSpaceOnUse">
<stop offset="0.5" stop-color="#D8C0FF"/>
<stop offset="0.5" stop-color="#A56CFF"/>
</linearGradient>
<linearGradient id="paint16_linear_62_2" x1="261.736" y1="804.272" x2="313.759" y2="829.828" gradientUnits="userSpaceOnUse">
<stop offset="0.5" stop-color="#D8C0FF"/>
<stop offset="0.5" stop-color="#A56CFF"/>
</linearGradient>
<linearGradient id="paint17_linear_62_2" x1="145.18" y1="855.226" x2="197.204" y2="880.781" gradientUnits="userSpaceOnUse">
<stop offset="0.5" stop-color="#D8C0FF"/>
<stop offset="0.5" stop-color="#A56CFF"/>
</linearGradient>
<linearGradient id="paint18_linear_62_2" x1="292.45" y1="688.212" x2="344.474" y2="713.768" gradientUnits="userSpaceOnUse">
<stop offset="0.5" stop-color="#D8C0FF"/>
<stop offset="0.5" stop-color="#A56CFF"/>
</linearGradient>
<linearGradient id="paint19_linear_62_2" x1="265.425" y1="627.219" x2="317.448" y2="652.774" gradientUnits="userSpaceOnUse">
<stop offset="0.5" stop-color="#D8C0FF"/>
<stop offset="0.5" stop-color="#A56CFF"/>
</linearGradient>
<linearGradient id="paint20_linear_62_2" x1="305.636" y1="748.238" x2="357.66" y2="773.794" gradientUnits="userSpaceOnUse">
<stop offset="0.5" stop-color="#D8C0FF"/>
<stop offset="0.5" stop-color="#A56CFF"/>
</linearGradient>
<linearGradient id="paint21_linear_62_2" x1="318.823" y1="808.264" x2="370.846" y2="833.819" gradientUnits="userSpaceOnUse">
<stop offset="0.5" stop-color="#D8C0FF"/>
<stop offset="0.5" stop-color="#A56CFF"/>
</linearGradient>
<linearGradient id="paint22_linear_62_2" x1="202.267" y1="859.218" x2="254.29" y2="884.773" gradientUnits="userSpaceOnUse">
<stop offset="0.5" stop-color="#D8C0FF"/>
<stop offset="0.5" stop-color="#A56CFF"/>
</linearGradient>
<linearGradient id="paint23_linear_62_2" x1="349.537" y1="692.204" x2="401.56" y2="717.759" gradientUnits="userSpaceOnUse">
<stop offset="0.5" stop-color="#D8C0FF"/>
<stop offset="0.5" stop-color="#A56CFF"/>
</linearGradient>
<linearGradient id="paint24_linear_62_2" x1="322.511" y1="631.21" x2="374.535" y2="656.766" gradientUnits="userSpaceOnUse">
<stop offset="0.5" stop-color="#D8C0FF"/>
<stop offset="0.5" stop-color="#A56CFF"/>
</linearGradient>
<linearGradient id="paint25_linear_62_2" x1="362.723" y1="752.23" x2="414.746" y2="777.785" gradientUnits="userSpaceOnUse">
<stop offset="0.5" stop-color="#D8C0FF"/>
<stop offset="0.5" stop-color="#A56CFF"/>
</linearGradient>
<linearGradient id="paint26_linear_62_2" x1="375.908" y1="812.256" x2="427.932" y2="837.811" gradientUnits="userSpaceOnUse">
<stop offset="0.5" stop-color="#D8C0FF"/>
<stop offset="0.5" stop-color="#A56CFF"/>
</linearGradient>
<linearGradient id="paint27_linear_62_2" x1="259.353" y1="863.209" x2="311.376" y2="888.765" gradientUnits="userSpaceOnUse">
<stop offset="0.5" stop-color="#D8C0FF"/>
<stop offset="0.5" stop-color="#A56CFF"/>
</linearGradient>
<linearGradient id="paint28_linear_62_2" x1="316.439" y1="867.201" x2="357.519" y2="984.243" gradientUnits="userSpaceOnUse">
<stop offset="0.5" stop-color="#D8C0FF"/>
<stop offset="0.5" stop-color="#A56CFF"/>
</linearGradient>
<linearGradient id="paint29_linear_62_2" x1="406.623" y1="696.196" x2="458.646" y2="721.751" gradientUnits="userSpaceOnUse">
<stop offset="0.5" stop-color="#D8C0FF"/>
<stop offset="0.5" stop-color="#A56CFF"/>
</linearGradient>
<linearGradient id="paint30_linear_62_2" x1="379.598" y1="635.202" x2="431.621" y2="660.758" gradientUnits="userSpaceOnUse">
<stop offset="0.5" stop-color="#D8C0FF"/>
<stop offset="0.5" stop-color="#A56CFF"/>
</linearGradient>
<linearGradient id="paint31_linear_62_2" x1="419.809" y1="756.222" x2="471.833" y2="781.777" gradientUnits="userSpaceOnUse">
<stop offset="0.5" stop-color="#D8C0FF"/>
<stop offset="0.5" stop-color="#A56CFF"/>
</linearGradient>
<linearGradient id="paint32_linear_62_2" x1="432.995" y1="816.248" x2="485.018" y2="841.803" gradientUnits="userSpaceOnUse">
<stop offset="0.5" stop-color="#D8C0FF"/>
<stop offset="0.5" stop-color="#A56CFF"/>
</linearGradient>
<linearGradient id="paint33_linear_62_2" x1="463.709" y1="700.188" x2="515.733" y2="725.743" gradientUnits="userSpaceOnUse">
<stop offset="0.5" stop-color="#D8C0FF"/>
<stop offset="0.5" stop-color="#A56CFF"/>
</linearGradient>
<linearGradient id="paint34_linear_62_2" x1="436.684" y1="639.194" x2="488.708" y2="664.75" gradientUnits="userSpaceOnUse">
<stop offset="0.5" stop-color="#D8C0FF"/>
<stop offset="0.5" stop-color="#A56CFF"/>
</linearGradient>
<linearGradient id="paint35_linear_62_2" x1="476.896" y1="760.214" x2="528.919" y2="785.769" gradientUnits="userSpaceOnUse">
<stop offset="0.5" stop-color="#D8C0FF"/>
<stop offset="0.5" stop-color="#A56CFF"/>
</linearGradient>
<linearGradient id="paint36_linear_62_2" x1="490.081" y1="820.24" x2="542.105" y2="845.795" gradientUnits="userSpaceOnUse">
<stop offset="0.5" stop-color="#D8C0FF"/>
<stop offset="0.5" stop-color="#A56CFF"/>
</linearGradient>
<linearGradient id="paint37_linear_62_2" x1="622.63" y1="888.612" x2="674.653" y2="914.168" gradientUnits="userSpaceOnUse">
<stop offset="0.5" stop-color="#D8C0FF"/>
<stop offset="0.5" stop-color="#A56CFF"/>
</linearGradient>
<linearGradient id="paint38_linear_62_2" x1="520.796" y1="704.18" x2="572.819" y2="729.735" gradientUnits="userSpaceOnUse">
<stop offset="0.5" stop-color="#D8C0FF"/>
<stop offset="0.5" stop-color="#A56CFF"/>
</linearGradient>
<linearGradient id="paint39_linear_62_2" x1="493.771" y1="643.186" x2="545.794" y2="668.741" gradientUnits="userSpaceOnUse">
<stop offset="0.5" stop-color="#D8C0FF"/>
<stop offset="0.5" stop-color="#A56CFF"/>
</linearGradient>
<linearGradient id="paint40_linear_62_2" x1="533.982" y1="764.206" x2="586.005" y2="789.761" gradientUnits="userSpaceOnUse">
<stop offset="0.5" stop-color="#D8C0FF"/>
<stop offset="0.5" stop-color="#A56CFF"/>
</linearGradient>
<linearGradient id="paint41_linear_62_2" x1="547.168" y1="824.232" x2="599.191" y2="849.787" gradientUnits="userSpaceOnUse">
<stop offset="0.5" stop-color="#D8C0FF"/>
<stop offset="0.5" stop-color="#A56CFF"/>
</linearGradient>
<linearGradient id="paint42_linear_62_2" x1="679.716" y1="892.604" x2="731.74" y2="918.16" gradientUnits="userSpaceOnUse">
<stop offset="0.5" stop-color="#D8C0FF"/>
<stop offset="0.5" stop-color="#A56CFF"/>
</linearGradient>
<linearGradient id="paint43_linear_62_2" x1="577.882" y1="708.172" x2="629.906" y2="733.727" gradientUnits="userSpaceOnUse">
<stop offset="0.5" stop-color="#D8C0FF"/>
<stop offset="0.5" stop-color="#A56CFF"/>
</linearGradient>
<linearGradient id="paint44_linear_62_2" x1="550.857" y1="647.178" x2="602.88" y2="672.733" gradientUnits="userSpaceOnUse">
<stop offset="0.5" stop-color="#D8C0FF"/>
<stop offset="0.5" stop-color="#A56CFF"/>
</linearGradient>
<linearGradient id="paint45_linear_62_2" x1="591.068" y1="768.197" x2="643.092" y2="793.753" gradientUnits="userSpaceOnUse">
<stop offset="0.5" stop-color="#D8C0FF"/>
<stop offset="0.5" stop-color="#A56CFF"/>
</linearGradient>
<linearGradient id="paint46_linear_62_2" x1="604.254" y1="828.223" x2="656.278" y2="853.779" gradientUnits="userSpaceOnUse">
<stop offset="0.5" stop-color="#D8C0FF"/>
<stop offset="0.5" stop-color="#A56CFF"/>
</linearGradient>
<linearGradient id="paint47_linear_62_2" x1="736.803" y1="896.596" x2="788.826" y2="922.151" gradientUnits="userSpaceOnUse">
<stop offset="0.5" stop-color="#D8C0FF"/>
<stop offset="0.5" stop-color="#A56CFF"/>
</linearGradient>
<linearGradient id="paint48_linear_62_2" x1="634.969" y1="712.163" x2="686.992" y2="737.719" gradientUnits="userSpaceOnUse">
<stop offset="0.5" stop-color="#D8C0FF"/>
<stop offset="0.5" stop-color="#A56CFF"/>
</linearGradient>
<linearGradient id="paint49_linear_62_2" x1="607.943" y1="651.17" x2="659.967" y2="676.725" gradientUnits="userSpaceOnUse">
<stop offset="0.5" stop-color="#D8C0FF"/>
<stop offset="0.5" stop-color="#A56CFF"/>
</linearGradient>
<linearGradient id="paint50_linear_62_2" x1="648.155" y1="772.189" x2="700.178" y2="797.745" gradientUnits="userSpaceOnUse">
<stop offset="0.5" stop-color="#D8C0FF"/>
<stop offset="0.5" stop-color="#A56CFF"/>
</linearGradient>
<linearGradient id="paint51_linear_62_2" x1="661.341" y1="832.215" x2="713.364" y2="857.771" gradientUnits="userSpaceOnUse">
<stop offset="0.5" stop-color="#D8C0FF"/>
<stop offset="0.5" stop-color="#A56CFF"/>
</linearGradient>
<linearGradient id="paint52_linear_62_2" x1="793.889" y1="900.588" x2="845.913" y2="926.143" gradientUnits="userSpaceOnUse">
<stop offset="0.5" stop-color="#D8C0FF"/>
<stop offset="0.5" stop-color="#A56CFF"/>
</linearGradient>
<linearGradient id="paint53_linear_62_2" x1="692.055" y1="716.155" x2="744.078" y2="741.711" gradientUnits="userSpaceOnUse">
<stop offset="0.5" stop-color="#D8C0FF"/>
<stop offset="0.5" stop-color="#A56CFF"/>
</linearGradient>
<linearGradient id="paint54_linear_62_2" x1="665.03" y1="655.162" x2="717.053" y2="680.717" gradientUnits="userSpaceOnUse">
<stop offset="0.5" stop-color="#D8C0FF"/>
<stop offset="0.5" stop-color="#A56CFF"/>
</linearGradient>
<linearGradient id="paint55_linear_62_2" x1="705.241" y1="776.181" x2="757.264" y2="801.737" gradientUnits="userSpaceOnUse">
<stop offset="0.5" stop-color="#D8C0FF"/>
<stop offset="0.5" stop-color="#A56CFF"/>
</linearGradient>
<linearGradient id="paint56_linear_62_2" x1="718.427" y1="836.207" x2="770.45" y2="861.763" gradientUnits="userSpaceOnUse">
<stop offset="0.5" stop-color="#D8C0FF"/>
<stop offset="0.5" stop-color="#A56CFF"/>
</linearGradient>
<linearGradient id="paint57_linear_62_2" x1="850.976" y1="904.58" x2="902.999" y2="930.135" gradientUnits="userSpaceOnUse">
<stop offset="0.5" stop-color="#D8C0FF"/>
<stop offset="0.5" stop-color="#A56CFF"/>
</linearGradient>
<linearGradient id="paint58_linear_62_2" x1="749.141" y1="720.147" x2="801.165" y2="745.703" gradientUnits="userSpaceOnUse">
<stop offset="0.5" stop-color="#D8C0FF"/>
<stop offset="0.5" stop-color="#A56CFF"/>
</linearGradient>
<linearGradient id="paint59_linear_62_2" x1="722.116" y1="659.153" x2="774.14" y2="684.709" gradientUnits="userSpaceOnUse">
<stop offset="0.5" stop-color="#D8C0FF"/>
<stop offset="0.5" stop-color="#A56CFF"/>
</linearGradient>
<linearGradient id="paint60_linear_62_2" x1="762.327" y1="780.173" x2="814.351" y2="805.728" gradientUnits="userSpaceOnUse">
<stop offset="0.5" stop-color="#D8C0FF"/>
<stop offset="0.5" stop-color="#A56CFF"/>
</linearGradient>
<linearGradient id="paint61_linear_62_2" x1="819.414" y1="784.165" x2="884.489" y2="840.64" gradientUnits="userSpaceOnUse">
<stop offset="0.5" stop-color="#D8C0FF"/>
<stop offset="0.5" stop-color="#A56CFF"/>
</linearGradient>
<linearGradient id="paint62_linear_62_2" x1="838.019" y1="667.258" x2="901.557" y2="716.157" gradientUnits="userSpaceOnUse">
<stop offset="0.5" stop-color="#D8C0FF"/>
<stop offset="0.5" stop-color="#A56CFF"/>
</linearGradient>
<linearGradient id="paint63_linear_62_2" x1="775.513" y1="840.199" x2="839.702" y2="920.079" gradientUnits="userSpaceOnUse">
<stop offset="0.5" stop-color="#D8C0FF"/>
<stop offset="0.5" stop-color="#A56CFF"/>
</linearGradient>
<linearGradient id="paint64_linear_62_2" x1="806.228" y1="724.139" x2="858.251" y2="749.694" gradientUnits="userSpaceOnUse">
<stop offset="0.5" stop-color="#D8C0FF"/>
<stop offset="0.5" stop-color="#A56CFF"/>
</linearGradient>
<linearGradient id="paint65_linear_62_2" x1="779.203" y1="663.145" x2="831.226" y2="688.701" gradientUnits="userSpaceOnUse">
<stop offset="0.5" stop-color="#D8C0FF"/>
<stop offset="0.5" stop-color="#A56CFF"/>
</linearGradient>
<linearGradient id="paint66_linear_62_2" x1="863.314" y1="728.131" x2="915.338" y2="753.686" gradientUnits="userSpaceOnUse">
<stop offset="0.5" stop-color="#D8C0FF"/>
<stop offset="0.5" stop-color="#A56CFF"/>
</linearGradient>
</defs>
</svg>
